<?xml version="1.0" encoding="utf-8"?>
<!-- Generator: Adobe Illustrator 16.0.0, SVG Export Plug-In . SVG Version: 6.00 Build 0)  -->
<!DOCTYPE svg PUBLIC "-//W3C//DTD SVG 1.1//EN" "http://www.w3.org/Graphics/SVG/1.1/DTD/svg11.dtd">
<svg version="1.1" id="Layer_1" xmlns="http://www.w3.org/2000/svg" xmlns:xlink="http://www.w3.org/1999/xlink" x="0px" y="0px"
	 width="708.662px" height="413.666px" viewBox="0 0 708.662 413.666" enable-background="new 0 0 708.662 413.666"
	 xml:space="preserve">
<g>
	<linearGradient id="SVGID_1_" gradientUnits="userSpaceOnUse" x1="354.3301" y1="5.2202" x2="354.33" y2="405.3556">
		<stop  offset="0" style="stop-color:#01012C"/>
		<stop  offset="0.75" style="stop-color:#1D1C48"/>
		<stop  offset="1" style="stop-color:#413562"/>
	</linearGradient>
	<path fill-rule="evenodd" clip-rule="evenodd" fill="url(#SVGID_1_)" d="M0,413.691c258.427,0,421.563,0,708.662,0V0H0V413.691z"/>
	<path fill-rule="evenodd" clip-rule="evenodd" fill="#FFFDD5" d="M621.365,116.466c0.525,0,0.949,0.888,0.949,1.977
		c0,1.096-0.424,1.983-0.949,1.983c-0.524,0-0.951-0.888-0.951-1.983C620.414,117.354,620.84,116.466,621.365,116.466
		L621.365,116.466z M693.318,19.484c0.389,0,0.703,0.656,0.703,1.466c0,0.812-0.314,1.464-0.703,1.464
		c-0.387,0-0.701-0.652-0.701-1.464C692.617,20.14,692.931,19.484,693.318,19.484L693.318,19.484z M377.351,23.09
		c0.477,0,0.862,0.806,0.862,1.798c0,0.996-0.386,1.798-0.862,1.798c-0.475,0-0.861-0.802-0.861-1.798
		C376.49,23.896,376.876,23.09,377.351,23.09L377.351,23.09z M481.417,52.615c0.438,0,0.794,0.739,0.794,1.657
		s-0.356,1.657-0.794,1.657c-0.441,0-0.797-0.739-0.797-1.657S480.976,52.615,481.417,52.615L481.417,52.615z M640.994,229.695
		c0.425,0,0.768,0.719,0.768,1.603c0,0.883-0.343,1.604-0.768,1.604c-0.426,0-0.768-0.721-0.768-1.604
		C640.226,230.414,640.568,229.695,640.994,229.695L640.994,229.695z M499.081,201.27c0.413,0,0.747,0.701,0.747,1.562
		c0,0.863-0.334,1.562-0.747,1.562c-0.414,0-0.749-0.699-0.749-1.562C498.332,201.971,498.667,201.27,499.081,201.27L499.081,201.27
		z M636.12,13.322c0.373,0,0.675,0.631,0.675,1.403c0,0.78-0.302,1.411-0.675,1.411c-0.371,0-0.676-0.631-0.676-1.411
		C635.444,13.953,635.749,13.322,636.12,13.322L636.12,13.322z M401.996,113.184c0.367,0,0.665,0.623,0.665,1.399
		c0,0.768-0.298,1.388-0.665,1.388c-0.371,0-0.672-0.621-0.672-1.388C401.324,113.807,401.625,113.184,401.996,113.184
		L401.996,113.184z M374.896,177.882c0.684,0,1.239,1.159,1.239,2.586s-0.556,2.583-1.239,2.583c-0.686,0-1.24-1.156-1.24-2.583
		S374.21,177.882,374.896,177.882L374.896,177.882z M572.214,30.648c0.846,0,1.532,1.434,1.532,3.197
		c0,1.765-0.687,3.194-1.532,3.194c-0.847,0-1.532-1.429-1.532-3.194C570.682,32.082,571.368,30.648,572.214,30.648L572.214,30.648z
		 M565.341,133.469c0.707,0,1.283,1.199,1.283,2.675c0,1.482-0.576,2.679-1.283,2.679c-0.71,0-1.285-1.197-1.285-2.679
		C564.056,134.668,564.631,133.469,565.341,133.469L565.341,133.469z M133.031,138.528c0.665,0,1.203,1.122,1.203,2.508
		c0,1.389-0.538,2.512-1.203,2.512c-0.666,0-1.205-1.124-1.205-2.512C131.826,139.65,132.365,138.528,133.031,138.528
		L133.031,138.528z M691.169,143.524c0.629,0,1.139,1.063,1.139,2.372c0,1.307-0.51,2.37-1.139,2.37
		c-0.625,0-1.136-1.063-1.136-2.37C690.034,144.587,690.544,143.524,691.169,143.524L691.169,143.524z M297.879,239.301
		c0.52,0,0.94,0.877,0.94,1.963c0,1.085-0.421,1.965-0.94,1.965c-0.521,0-0.944-0.88-0.944-1.965
		C296.935,240.178,297.359,239.301,297.879,239.301L297.879,239.301z M280.687,46.761c0.413,0,0.748,0.698,0.748,1.56
		c0,0.863-0.335,1.563-0.748,1.563c-0.414,0-0.749-0.7-0.749-1.563C279.938,47.459,280.273,46.761,280.687,46.761L280.687,46.761z
		 M164.421,25.208c0.411,0,0.744,0.69,0.744,1.545c0,0.857-0.333,1.548-0.744,1.548c-0.408,0-0.74-0.69-0.74-1.548
		C163.681,25.898,164.013,25.208,164.421,25.208L164.421,25.208z M327.369,143.321c0.402,0,0.729,0.678,0.729,1.522
		c0,0.833-0.326,1.519-0.729,1.519s-0.73-0.686-0.73-1.519C326.638,143.999,326.966,143.321,327.369,143.321L327.369,143.321z
		 M220.621,142.476c0.368,0,0.666,0.623,0.666,1.399c0,0.768-0.298,1.391-0.666,1.391c-0.369,0-0.67-0.623-0.67-1.391
		C219.951,143.099,220.251,142.476,220.621,142.476L220.621,142.476z M68.246,241.781c0.629,0,1.139,1.061,1.139,2.37
		c0,1.307-0.51,2.37-1.139,2.37c-0.625,0-1.136-1.063-1.136-2.37C67.11,242.841,67.621,241.781,68.246,241.781L68.246,241.781z
		 M16.728,19.484c0.388,0,0.703,0.656,0.703,1.466c0,0.812-0.315,1.464-0.703,1.464c-0.387,0-0.702-0.652-0.702-1.464
		C16.026,20.14,16.341,19.484,16.728,19.484L16.728,19.484z M70.414,103.301c0.756,0,1.371,1.276,1.371,2.854
		c0,1.584-0.615,2.861-1.371,2.861c-0.758,0-1.371-1.277-1.371-2.861C69.042,104.578,69.656,103.301,70.414,103.301L70.414,103.301z
		 M118.224,55.724c0.732,0,1.326,1.238,1.326,2.763c0,1.525-0.594,2.763-1.326,2.763c-0.73,0-1.322-1.238-1.322-2.763
		C116.902,56.961,117.494,55.724,118.224,55.724L118.224,55.724z M14.58,143.524c0.628,0,1.139,1.063,1.139,2.372
		c0,1.307-0.511,2.37-1.139,2.37c-0.626,0-1.136-1.063-1.136-2.37C13.444,144.587,13.954,143.524,14.58,143.524z"/>
	<linearGradient id="SVGID_2_" gradientUnits="userSpaceOnUse" x1="354.3301" y1="9.311" x2="354.33" y2="388.0923">
		<stop  offset="0" style="stop-color:#010141"/>
		<stop  offset="0.75" style="stop-color:#303161"/>
		<stop  offset="1" style="stop-color:#604C7F"/>
	</linearGradient>
	<path fill-rule="evenodd" clip-rule="evenodd" fill="url(#SVGID_2_)" d="M689.193,111.451c7.797,0.273,14.413,0.603,19.469,0.978
		v4.07c-2.385-0.028-4.643-0.067-6.735-0.114c-13.278,0.717-32.952,1.213-55.349,1.323c0.363,0.289,0.559,0.597,0.559,0.908
		c0,1.955-7.505,3.539-16.757,3.539c-8.921,0-16.213-1.472-16.727-3.329c-6.036,0.245-12.864,0.381-20.093,0.381
		c-20.786,0-38.248-1.13-43.158-2.661c-15.053-0.069-26.732-0.566-26.732-1.17c0-0.642,13.076-1.163,29.389-1.181
		c0.443-0.073,0.918-0.148,1.428-0.224c1.103-0.753,7.709-1.441,18.113-1.995c-0.423-0.232-0.646-0.479-0.646-0.727
		c0-1.953,13.576-3.541,30.316-3.541c1.035,0,2.059,0.008,3.068,0.019c5.554-0.731,13.677-1.195,22.728-1.195
		c9.418,0,17.833,0.501,23.394,1.289c2.391-0.071,4.894-0.112,7.473-0.112c16.738,0,30.314,1.588,30.314,3.541
		C689.246,111.315,689.228,111.386,689.193,111.451L689.193,111.451z M509.306,146.283c21.404,0.65,35.079,1.637,35.079,2.743
		l-0.001,0.004c18.144,0.041,32.483,0.552,32.483,1.177c0,0.651-15.625,1.179-34.892,1.179c-6.592,0-12.757-0.063-18.016-0.169
		c-15.283,0.719-37.926,1.213-63.705,1.323c0.418,0.289,0.643,0.595,0.643,0.91c0,1.953-8.637,3.537-19.285,3.537
		c-10.268,0-18.662-1.472-19.252-3.329c-6.949,0.242-14.807,0.38-23.127,0.38c-23.924,0-44.023-1.132-49.674-2.661
		c-17.325-0.069-30.77-0.568-30.77-1.17c0-0.64,15.051-1.161,33.826-1.181c0.51-0.075,1.058-0.15,1.643-0.224
		c1.27-0.753,8.874-1.441,20.85-1.995c-0.486-0.234-0.744-0.479-0.744-0.729c0-1.953,15.625-3.537,34.893-3.537
		c1.191,0,2.37,0.006,3.531,0.019c6.394-0.735,15.743-1.197,26.16-1.197c10.839,0,20.525,0.501,26.926,1.287
		c2.752-0.071,5.632-0.108,8.6-0.108c19.268,0,34.893,1.584,34.893,3.537C509.367,146.147,509.345,146.216,509.306,146.283
		L509.306,146.283z M613.376,166.45c12.252,0.647,20.079,1.637,20.079,2.743l-0.001,0.002c10.386,0.042,18.594,0.554,18.594,1.177
		c0,0.651-8.943,1.181-19.973,1.181c-3.772,0-7.302-0.063-10.312-0.171c-8.748,0.719-21.709,1.213-36.466,1.326
		c0.24,0.289,0.369,0.594,0.369,0.908c0,1.952-4.944,3.538-11.039,3.538c-5.877,0-10.682-1.474-11.021-3.329
		c-3.978,0.242-8.476,0.38-13.237,0.38c-13.695,0-25.199-1.132-28.434-2.663c-9.917-0.069-17.612-0.565-17.612-1.17
		c0-0.639,8.615-1.161,19.362-1.179c0.291-0.078,0.605-0.151,0.94-0.226c0.726-0.751,5.079-1.441,11.934-1.993
		c-0.278-0.236-0.426-0.479-0.426-0.729c0-1.955,8.944-3.539,19.974-3.539c0.682,0,1.355,0.008,2.02,0.018
		c3.66-0.733,9.012-1.197,14.975-1.197c6.204,0,11.749,0.5,15.412,1.289c1.575-0.071,3.225-0.11,4.924-0.11
		c11.027,0,19.971,1.584,19.971,3.539C613.41,166.314,613.398,166.381,613.376,166.45L613.376,166.45z M201.618,183.866
		c18.597,0.647,30.478,1.635,30.478,2.743v0.002c15.763,0.041,28.222,0.554,28.222,1.177c0,0.651-13.575,1.179-30.314,1.179
		c-5.728,0-11.083-0.061-15.653-0.169c-13.277,0.719-32.95,1.213-55.348,1.326c0.363,0.289,0.559,0.594,0.559,0.908
		c0,1.952-7.504,3.538-16.756,3.538c-8.921,0-16.213-1.474-16.727-3.329c-6.037,0.242-12.865,0.378-20.093,0.378
		c-20.786,0-38.249-1.132-43.159-2.661c-15.051-0.069-26.732-0.566-26.732-1.171c0-0.639,13.077-1.161,29.389-1.179
		c0.443-0.078,0.92-0.151,1.428-0.226c1.103-0.751,7.709-1.441,18.114-1.993c-0.423-0.236-0.646-0.479-0.646-0.729
		c0-1.955,13.575-3.539,30.315-3.539c1.035,0,2.06,0.006,3.068,0.019c5.555-0.733,13.678-1.197,22.729-1.197
		c9.417,0,17.833,0.501,23.394,1.289c2.391-0.071,4.894-0.11,7.472-0.11c16.74,0,30.315,1.584,30.315,3.539
		C201.67,183.73,201.652,183.797,201.618,183.866L201.618,183.866z M572.423,72.527c37.762,1.317,61.889,3.323,61.889,5.571
		l-0.002,0.004c32.008,0.085,57.307,1.124,57.307,2.39c0,1.324-27.565,2.395-61.557,2.395c-11.629,0-22.506-0.126-31.784-0.344
		c-26.962,1.46-66.909,2.464-112.391,2.689c0.738,0.589,1.134,1.209,1.134,1.847c0,3.966-15.236,7.183-34.023,7.183
		c-18.113,0-32.922-2.991-33.965-6.759c-12.258,0.493-26.122,0.773-40.8,0.773c-42.209,0-77.669-2.301-87.637-5.405
		c-30.565-0.141-54.284-1.15-54.284-2.378c0-1.297,26.555-2.355,59.677-2.394c0.899-0.157,1.866-0.308,2.899-0.456
		c2.238-1.529,15.654-2.93,36.781-4.052c-0.857-0.477-1.313-0.971-1.313-1.48c0-3.966,27.566-7.183,61.561-7.183
		c2.102,0,4.18,0.014,6.228,0.037c11.28-1.49,27.775-2.431,46.153-2.431c19.122,0,36.212,1.018,47.504,2.616
		c4.854-0.145,9.936-0.222,15.172-0.222c33.991,0,61.557,3.217,61.557,7.183C572.529,72.25,572.492,72.389,572.423,72.527
		L572.423,72.527z M0,83.055v20.429c5.883,0.249,12.188,0.383,18.75,0.383c9.414,0,18.307-0.279,26.168-0.773
		c0.67,3.771,10.168,6.759,21.785,6.759c12.051,0,21.822-3.217,21.822-7.183c0-0.637-0.254-1.258-0.727-1.845
		c29.171-0.226,54.793-1.229,72.086-2.691c5.951,0.218,12.928,0.346,20.387,0.346c21.802,0,39.482-1.073,39.482-2.395
		c0-1.268-16.227-2.307-36.757-2.39l0.001-0.006c0-2.246-15.475-4.253-39.694-5.571c0.043-0.136,0.067-0.275,0.067-0.416
		c0-3.966-17.68-7.185-39.481-7.185c-3.358,0-6.618,0.078-9.731,0.222c-7.243-1.596-18.204-2.616-30.469-2.616
		c-11.787,0-22.367,0.942-29.603,2.433c-1.313-0.024-2.646-0.039-3.995-0.039C18.037,80.518,7.244,81.504,0,83.055z"/>
	<linearGradient id="SVGID_3_" gradientUnits="userSpaceOnUse" x1="354.3301" y1="201.0342" x2="354.3301" y2="395.1992">
		<stop  offset="0" style="stop-color:#010131"/>
		<stop  offset="0.53" style="stop-color:#01093E"/>
		<stop  offset="1" style="stop-color:#2A2252"/>
	</linearGradient>
	<path fill-rule="evenodd" clip-rule="evenodd" fill="url(#SVGID_3_)" d="M708.662,244.935h-2.025v58.686h-0.941v-5.367h-2.62v5.367
		h-15.269v15.253h-2.523V279.3h-2.298v39.574h-1.441v-18.157h-1.646v18.157h-0.549v-37.403h-8.045v8.533h-0.066v28.871h-1.746V302.5
		h-2.132v16.374h-4.53v-14.596h-4.027v-26.165h-1.648v26.165h-5.695v-6.025h-9.013v6.025h-7.275v6.554h-1.304v8.042h-1.05v-40.761
		h-1.646v14.796h-3.321V279.3h-2.298v39.574h-1.438v-18.157h-1.649v18.157h-1.745v-28.871h-4.016v-42.911h-7.054v71.781h-4.414
		v-32.94h-5.051v32.94h-5.356v-52.36h-21.218v52.36h-5.361v-29.703h-6.551v29.703h-2.493v-8.406h-1.23v-32.354h-1.647v32.354h-6.135
		v8.406h-2.756v-20.621h-2.621v20.621h-2.762v-8.042h-2.834v-7.211h-3.776v-58.686h-5.05v58.686h-3.372V279.3h-2.299v24.32h-1.438
		v-2.903h-1.646v2.903h-1.746v-13.617h-6.914v13.617h-0.067v-22.15h-12.368v-3.357h-1.646v3.357H485.25v16.783h-1.063v6.025h-9.629
		v-26.165h-1.647v26.165h-3.318V279.3h-2.301v24.978h-1.439v-3.561h-1.646v3.561h-1.745v-14.275h-6.756v-45.069h-5.051v73.939
		h-2.624v-8.406h-1.231v-32.354h-1.645v32.354h-4.694v-63.375h-7.054v71.781h-2.528v-8.042h-1.887v-24.898h-5.05v24.898h-2.077
		v8.042h-1.05v-14.313h-1.644v14.313h-0.586v-52.36h-15.911v-21.58h-6.389v58.686h-1.189v-5.367h-3.089v-9.083h-2.642v-11.058
		h-1.645v11.058h-2.265v14.45h-12.978v15.253h-3.189V279.3h-2.906v39.574h-1.821v-18.157h-2.08v18.157h-0.694v-37.403h-10.172v8.533
		h-0.082v28.871h-2.209V302.5h-2.695v16.374h-5.728v-14.596h-5.091v-26.165h-2.084v26.165h-7.201v-6.025h-11.394v6.025h-9.198v6.554
		h-1.648v8.042h-1.326v-40.761h-2.082v14.796h-4.198V279.3h-2.906v39.574h-1.817v-18.157h-2.085v18.157h-2.206v-28.871h-5.077
		v-42.911h-8.917v71.781h-5.581v-32.94h-6.386v32.94h-6.771v-52.36h-26.826v52.36h-6.778v-29.703h-8.28v29.703h-3.152v-8.406h-1.556
		v-32.354h-2.083v32.354h-7.757v8.406h-3.483v-20.621h-3.314v20.621h-3.491v-8.042h-3.582v-7.211h-4.774v-58.686h-6.385v58.686
		h-4.263V279.3h-2.907v24.32h-1.818v-2.903h-2.082v2.903h-2.206v-13.617h-8.742v13.617h-0.085v-22.15h-15.637v-3.357h-2.082v3.357
		h-17.252v16.783h-1.345v6.025h-12.173v-26.165h-2.083v26.165h-4.196V279.3h-2.908v24.978h-1.82v-3.561h-2.08v3.561h-2.206v-14.275
		h-8.541v-45.069h-6.386v73.939h-3.317v-8.406h-1.558v-32.354h-2.079v32.354h-5.935v-63.375h-8.916v71.781h-3.198v-8.042h-2.385
		v-24.898h-6.385v24.898h-2.626v8.042h-1.326v-14.313h-2.078v14.313h-0.741v-52.36H5.283v52.36H0v94.817
		c287.1,0,450.236,0,708.662,0V244.935z"/>
	<path fill-rule="evenodd" clip-rule="evenodd" fill="#010130" d="M0,261.483h2.025v52.932h0.941v-4.842h2.621v4.842h15.269v13.757
		h2.522v-35.693h2.299v35.693h1.441v-16.376h1.645v16.376h0.549v-33.737h8.046v7.698h0.065v26.039h1.747v-14.77h2.131v14.77h4.531
		v-13.165h4.026v-23.6h1.648v23.6h5.695v-5.434h9.014v5.434h7.275v5.911h1.304v7.254h1.05v-36.765h1.646v13.344h3.32v-12.273h2.299
		v35.693h1.438v-16.376h1.648v16.376h1.745v-26.039h4.017V263.43h7.053v64.743h4.414v-29.709h5.051v29.709h5.357v-47.226h21.218
		v47.226h5.361v-26.79h6.55v26.79h2.494v-7.584h1.23v-29.181h1.646v29.181h6.135v7.584h2.757v-18.599h2.621v18.599h2.761v-7.254
		h2.834v-6.503h3.777v-52.932h5.05v52.932h3.371v-21.936h2.299v21.936h1.438v-2.619h1.647v2.619h1.745v-12.281h6.914v12.281h0.068
		v-19.979h12.367v-3.028h1.646v3.028h13.646v15.138h1.064v5.434h9.629v-23.6h1.646v23.6h3.318v-22.528h2.301v22.528h1.439v-3.211
		h1.646v3.211h1.744v-12.874h6.756v-40.651h5.051v66.689h2.625v-7.584h1.231v-29.181h1.644v29.181h4.695V263.43h7.053v64.743h2.529
		v-7.254h1.887v-22.455h5.05v22.455h2.077v7.254h1.049v-12.911h1.645v12.911h0.586v-47.226h15.91v-19.464h6.389v52.932h1.189v-4.842
		h3.089v-8.191h2.642v-9.975h1.646v9.975h2.264v13.033h12.979v13.757h3.189v-35.693h2.905v35.693h1.822v-16.376h2.08v16.376h0.693
		v-33.737h10.172v7.698h0.083v26.039h2.209v-14.77h2.694v14.77h5.729v-13.165h5.09v-23.6h2.084v23.6h7.201v-5.434h11.395v5.434
		h9.197v5.911h1.648v7.254h1.326v-36.765h2.082v13.344h4.199v-12.273h2.905v35.693h1.817v-16.376h2.085v16.376h2.206v-26.039h5.078
		V263.43h8.916v64.743h5.582v-29.709h6.385v29.709h6.772v-47.226h26.825v47.226h6.778v-26.79h8.281v26.79h3.152v-7.584h1.556
		v-29.181h2.082v29.181h7.758v7.584h3.483v-18.599h3.313v18.599h3.492v-7.254h3.581v-6.503h4.774v-52.932h6.386v52.932h4.263
		v-21.936h2.906v21.936h1.819v-2.619h2.081v2.619h2.207v-12.281h8.742v12.281h0.084v-19.979h15.637v-3.028h2.082v3.028h17.252
		v15.138h1.345v5.434h12.173v-23.6h2.084v23.6h4.195v-22.528h2.908v22.528h1.82v-3.211h2.08v3.211h2.207v-12.874h8.541v-40.651
		h6.385v66.689h3.317v-7.584h1.558v-29.181h2.08v29.181h5.934V263.43h8.917v64.743h3.197v-7.254h2.385v-22.455h6.386v22.455h2.625
		v7.254h1.326v-12.911h2.079v12.911h0.74v-47.226h22.771v47.226h9.342v85.519c-287.099,0-450.235,0-708.662,0V261.483z"/>
	<polygon fill-rule="evenodd" clip-rule="evenodd" fill="#201B4D" points="0,315.728 2.025,315.728 2.025,348.038 2.966,348.038 
		2.966,345.082 5.587,345.082 5.587,348.038 20.856,348.038 20.856,356.438 23.379,356.438 23.379,334.647 25.677,334.647 
		25.677,356.438 27.119,356.438 27.119,346.44 28.763,346.44 28.763,356.438 29.313,356.438 29.313,335.843 37.358,335.843 
		37.358,340.541 37.423,340.541 37.423,356.438 39.17,356.438 39.17,347.42 41.301,347.42 41.301,356.438 45.833,356.438 
		45.833,348.4 49.86,348.4 49.86,333.993 51.508,333.993 51.508,348.4 57.204,348.4 57.204,345.082 66.216,345.082 66.216,348.4 
		73.492,348.4 73.492,352.008 74.795,352.008 74.795,356.438 75.845,356.438 75.845,333.993 77.491,333.993 77.491,342.141 
		80.812,342.141 80.812,334.647 83.11,334.647 83.11,356.438 84.548,356.438 84.548,346.44 86.198,346.44 86.198,356.438 
		87.943,356.438 87.943,340.541 91.958,340.541 91.958,316.914 99.011,316.914 99.011,356.438 103.426,356.438 103.426,338.3 
		108.476,338.3 108.476,356.438 113.833,356.438 113.833,327.609 135.051,327.609 135.051,356.438 140.413,356.438 140.413,340.083 
		146.963,340.083 146.963,356.438 149.457,356.438 149.457,351.807 150.687,351.807 150.687,333.993 152.333,333.993 
		152.333,351.807 158.47,351.807 158.47,356.438 161.225,356.438 161.225,345.082 163.846,345.082 163.846,356.438 166.608,356.438 
		166.608,352.008 169.442,352.008 169.442,348.038 173.218,348.038 173.218,315.728 178.268,315.728 178.268,348.038 
		181.639,348.038 181.639,334.647 183.939,334.647 183.939,348.038 185.378,348.038 185.378,346.44 187.024,346.44 187.024,348.038 
		188.769,348.038 188.769,340.541 195.684,340.541 195.684,348.038 195.751,348.038 195.751,335.843 208.12,335.843 208.12,333.993 
		209.766,333.993 209.766,335.843 223.413,335.843 223.413,345.082 224.476,345.082 224.476,348.4 234.105,348.4 234.105,333.993 
		235.753,333.993 235.753,348.4 239.071,348.4 239.071,334.647 241.372,334.647 241.372,348.4 242.812,348.4 242.812,346.44 
		244.457,346.44 244.457,348.4 246.201,348.4 246.201,340.541 252.958,340.541 252.958,315.728 258.008,315.728 258.008,356.438 
		260.632,356.438 260.632,351.807 261.864,351.807 261.864,333.993 263.508,333.993 263.508,351.807 268.203,351.807 
		268.203,316.914 275.255,316.914 275.255,356.438 277.785,356.438 277.785,352.008 279.671,352.008 279.671,338.3 284.721,338.3 
		284.721,352.008 286.798,352.008 286.798,356.438 287.847,356.438 287.847,348.555 289.492,348.555 289.492,356.438 
		290.078,356.438 290.078,327.609 305.989,327.609 305.989,315.728 312.376,315.728 312.376,348.038 313.567,348.038 
		313.567,345.082 316.655,345.082 316.655,340.083 319.297,340.083 319.297,333.993 320.942,333.993 320.942,340.083 
		323.207,340.083 323.207,348.038 336.184,348.038 336.184,356.438 339.375,356.438 339.375,334.647 342.28,334.647 342.28,356.438 
		344.101,356.438 344.101,346.44 346.181,346.44 346.181,356.438 346.875,356.438 346.875,335.843 357.048,335.843 357.048,340.541 
		357.13,340.541 357.13,356.438 359.339,356.438 359.339,347.42 362.033,347.42 362.033,356.438 367.761,356.438 367.761,348.4 
		372.852,348.4 372.852,333.993 374.937,333.993 374.937,348.4 382.138,348.4 382.138,345.082 393.531,345.082 393.531,348.4 
		402.729,348.4 402.729,352.008 404.378,352.008 404.378,356.438 405.705,356.438 405.705,333.993 407.786,333.993 407.786,342.141 
		411.984,342.141 411.984,334.647 414.89,334.647 414.89,356.438 416.708,356.438 416.708,346.44 418.792,346.44 418.792,356.438 
		421,356.438 421,340.541 426.076,340.541 426.076,316.914 434.993,316.914 434.993,356.438 440.574,356.438 440.574,338.3 
		446.958,338.3 446.958,356.438 453.732,356.438 453.732,327.609 480.558,327.609 480.558,356.438 487.335,356.438 487.335,340.083 
		495.617,340.083 495.617,356.438 498.769,356.438 498.769,351.807 500.324,351.807 500.324,333.993 502.408,333.993 
		502.408,351.807 510.164,351.807 510.164,356.438 513.647,356.438 513.647,345.082 516.96,345.082 516.96,356.438 520.453,356.438 
		520.453,352.008 524.034,352.008 524.034,348.038 528.81,348.038 528.81,315.728 535.195,315.728 535.195,348.038 539.456,348.038 
		539.456,334.647 542.363,334.647 542.363,348.038 544.183,348.038 544.183,346.44 546.263,346.44 546.263,348.038 548.47,348.038 
		548.47,340.541 557.212,340.541 557.212,348.038 557.297,348.038 557.297,335.843 572.935,335.843 572.935,333.993 
		575.017,333.993 575.017,335.843 592.269,335.843 592.269,345.082 593.612,345.082 593.612,348.4 605.786,348.4 605.786,333.993 
		607.869,333.993 607.869,348.4 612.066,348.4 612.066,334.647 614.972,334.647 614.972,348.4 616.793,348.4 616.793,346.44 
		618.875,346.44 618.875,348.4 621.08,348.4 621.08,340.541 629.621,340.541 629.621,315.728 636.005,315.728 636.005,356.438 
		639.324,356.438 639.324,351.807 640.88,351.807 640.88,333.993 642.96,333.993 642.96,351.807 648.895,351.807 648.895,316.914 
		657.812,316.914 657.812,356.438 661.008,356.438 661.008,352.008 663.393,352.008 663.393,338.3 669.779,338.3 669.779,352.008 
		672.406,352.008 672.406,356.438 673.732,356.438 673.732,348.555 675.809,348.555 675.809,356.438 676.549,356.438 
		676.549,327.609 699.321,327.609 699.321,356.438 708.662,356.438 708.662,408.658 626.979,408.658 618.621,408.658 
		613.979,408.658 606.382,408.658 601.126,408.658 594.287,408.658 588.416,408.658 582.328,408.658 575.839,408.658 570.5,408.658 
		563.391,408.658 558.798,408.658 551.072,408.658 547.216,408.658 538.873,408.658 535.753,408.658 526.785,408.658 
		524.402,408.658 514.805,408.658 513.156,408.658 502.933,408.658 502.009,408.658 491.156,408.658 490.96,408.658 
		480.003,408.658 479.472,408.658 469.131,408.658 467.876,408.658 458.343,408.658 456.361,408.658 447.628,408.658 
		444.922,408.658 436.986,408.658 433.555,408.658 426.41,408.658 422.255,408.658 415.893,408.658 411.015,408.658 
		405.434,408.658 399.828,408.658 395.029,408.658 388.693,408.658 384.666,408.658 377.598,408.658 374.345,408.658 
		366.546,408.658 364.06,408.658 355.527,408.658 353.806,408.658 344.534,408.658 343.579,408.658 333.564,408.658 
		333.372,408.658 323.181,408.658 322.612,408.658 313,408.658 311.67,408.658 302.828,408.658 300.737,408.658 292.655,408.658 
		289.804,408.658 282.477,408.658 278.867,408.658 272.292,408.658 267.918,408.658 262.091,408.658 256.956,408.658 
		251.872,408.658 245.972,408.658 241.628,408.658 234.963,408.658 231.356,408.658 223.922,408.658 221.048,408.658 
		212.846,408.658 210.702,408.658 201.726,408.658 200.312,408.658 190.559,408.658 189.873,408.658 179.378,408.658 
		179.339,408.658 168.826,408.658 168.061,408.658 158.208,408.658 156.719,408.658 147.521,408.658 145.308,408.658 
		136.759,408.658 133.823,408.658 125.918,408.658 122.257,408.658 114.995,408.658 110.606,408.658 103.98,408.658 98.865,408.658 
		92.872,408.658 87.027,408.658 81.663,408.658 75.088,408.658 70.35,408.658 63.042,408.658 58.928,408.658 50.884,408.658 
		47.392,408.658 38.608,408.658 35.735,408.658 26.209,408.658 23.955,408.658 13.682,408.658 12.044,408.658 1.021,408.658 
		0,408.658 	"/>
	<path fill-rule="evenodd" clip-rule="evenodd" fill="#010101" d="M613.948,387.508h1.686v-0.664h-0.759v-1.651h7.283v-46.057h22.58
		v46.057h5.118v-7.372h0.956v-1.202h0.498v1.202h1.131v-1.202h0.5v1.202h0.283v0.575h0.636v-1.699h1.246v-0.957
		c0-0.586,1.35-1.067,2.999-1.067c1.652,0,3.002,0.481,3.002,1.067v0.957h0.963v-0.713h0.27v0.713h1.221v-1.594h0.27v1.594h0.865
		v1.699h1.07v7.937h10.768v20.086h2.217v-13.214h0.578v-0.898h4.446v-0.561h0.147v0.561h0.662v-1.25h0.145v1.25h0.468v0.898h0.581
		v19.852h-74.453v-3.086h2.624V387.508L613.948,387.508z M686.267,413.056L686.267,413.056v-2.829h0.214v-14.321h6.729V366.03h2.936
		v-15.202h1.374l1.181-2.442h1.555v-0.841h-1.149l1.308-2.704h5.977l1.305,2.704h-1.148v0.841h1.555l0.561,1.161v1.282v0.04v52.54
		v2.682v6.966H686.267L686.267,413.056z M0,413.056L0,413.056v-0.547v-0.495v-0.407v-0.876v-1.38v-3.131v-0.418v-1.84v-1.379v-3.25
		v-1.378v-1.851v-0.406v-5.387v-0.418v-1.839v-1.38V385.8v-1.381v-2.695h2.271v-1.875c0-0.691,0.573-1.258,1.272-1.258h0.885v-0.813
		h3.16v-1.611h0.419v1.611h1.907v-3.599h0.42v3.599h1.35v0.813h0.583l0.264-0.363h0.448v-0.161h-0.331l0.376-0.517h0.727v-0.221
		h-0.111h-0.146v-0.128h0.146h0.111v-0.716h-0.111h-0.146v-0.127h0.146h0.111v-0.374h-0.368v-0.127h0.368h0.146H13.9h0.146h0.368
		v0.127h-0.368v0.374h0.111h0.145v0.127h-0.145h-0.111v0.716h0.111h0.145v0.128h-0.145h-0.111v0.221h0.697l0.376,0.517h-0.33v0.161
		h0.446l0.265,0.363h0.002c0.699,0,1.272,0.566,1.272,1.258v1.875h4.005v14.955h9.037v-22.73h0.742v-1.152h5.692v-0.716h0.186v0.716
		h0.849v-1.599h0.186v1.599h0.203v-11.444h1.399v-2.173h10.738v-1.351h0.352v1.351h1.599v-3.016h0.352v3.016h1.132v2.173h1.398
		v24.98h10.394v-22.443h1.372v-0.878h-0.443v-2.113h11.78v2.113h-0.443v0.878h1.372v23.377h2.217v-0.559h0.146v0.559h0.662v-1.249
		h0.146v1.249h0.469v0.9h0.58v20.649h1.647v-20.098c0-0.688,0.557-1.252,1.238-1.252h0.401v-1.414l2.362-2.203h7.805v-23.496h-0.314
		v-2.125h3.229l1.825-3.616l2.369-4.692l2.37,4.692l1.825,3.616h3.229v2.125h-0.314v26.329h0.52v-1.351h0.352v1.351h1.599v-3.017
		h0.352v3.017h1.132h0.799v-16.378h10.632v17.266c0.438,0.193,0.745,0.637,0.745,1.148v10.219h3.428v-34.232h0.659v-0.674h0.336
		v-1.408h0.584v1.408h1.327v-1.408h0.584v1.408h1.329v-1.408h0.584v1.408h1.328v-1.408h0.585v1.408h1.327v-1.408h0.585v1.408h0.335
		v0.674h0.744v-1.949h1.462v-1.623c0-0.998,1.584-1.814,3.521-1.814s3.52,0.816,3.52,1.814v1.623h1.13v-1.211h0.315v1.211h1.434
		v-2.705h0.315v2.705h1.015v1.949h1.256v43.983h1.323v-66.916h1.479v-4.911h15.843v4.911h1.478v64.646h1.148v-29.745l3.097-4.646
		h1.424V355.04l3.097-5.747h2.14v-10.976l1.188-2.202h4.134l1.186,2.202v10.976h2.14l3.098,5.747v16.986h1.424l3.097,4.646v26.735
		h1.008v-14.187v-0.184V362.54h1.21v-0.686c0-1.113,1.766-2.021,3.925-2.021c2.158,0,3.925,0.909,3.925,2.021v0.686h1.211v26.498
		v0.184v14.187h1.661l2.14,1.579V360.11h-0.374v-3.441h2.312v-3.134l2.388-5.746h2.394l0.84-6.879l0.927-7.592l0.927,7.592
		l0.84,6.879h2.394l2.389,5.746v3.134h2.312v3.441h-0.375v49.859h1.408v-19.285h1.348V383.7h0.631l0.542-1.121h0.715v-0.388h-0.527
		l0.6-1.242h2.745l0.601,1.242h-0.528v0.388h0.715l0.543,1.121h0.629v6.984h1.35v19.285h0.945v0.519h0.021v-46.515h0.699v-3.289
		h7.935v-1.005h0.26v1.005h1.182v-1.51h0.26v1.51h0.836v3.289h0.944v21.219h5.656v-26.715h18.799v25.293h3.665v26.313h0.455v2.972H0
		L0,413.056z M287.195,413.056L287.195,413.056v-17.801h-0.208v-1.89h0.88l4.048-7.388l4.048,7.388h0.879v1.89h-0.208v17.55h0.332
		v0.251H287.195L287.195,413.056z M297.685,413.056L297.685,413.056v-7.128H297.5V405l0.186-0.136V377.82h0.956v-1.202h0.497v1.202
		h1.132v-1.202h0.499v1.202h0.284v0.575h0.636v-1.699h1.246v-0.957c0-0.586,1.35-1.067,3-1.067s3.001,0.481,3.001,1.067v0.957h0.963
		v-0.713h0.27v0.713h1.221v-1.594h0.269v1.594h0.865v1.699h1.07v7.937h10.768v17.076h0.006l2.157,1.592v0.928h-0.823v4.042h0.729
		v-3.62h0.148v-13.146h0.58v-0.898h4.446v-0.561h0.146v0.561h0.662v-1.25h0.146v1.25h0.469v0.898h0.579v13.146h0.706v-10.444h10.633
		v14.064h1.605v-19.285h1.348V383.7h0.632l0.542-1.121h0.715v-0.388h-0.528l0.6-1.242h2.746l0.6,1.242h-0.527v0.388h0.714
		l0.542,1.121h0.631v6.984h1.35v18.003h1.039v-21.18h1.686v-0.664h-0.76v-1.651h20.167v1.651h-0.759v0.664h1.686v18.91h6.908v-0.328
		h6.267v0.328h0.551v4.998h1.551v-29.692h4.007v-1.875c0-0.691,0.572-1.258,1.271-1.258h0.886v-0.813h3.159v-1.611h0.421v1.611
		h1.905v-3.599h0.421v3.599h1.35v0.813h0.584l0.264-0.363h0.447v-0.161h-0.332l0.377-0.517h0.727v-0.221h-0.111h-0.145v-0.128h0.145
		h0.111v-0.716h-0.111h-0.145v-0.127h0.145h0.111v-0.374h-0.37v-0.127h0.37h0.146h0.003h0.146h0.368v0.127h-0.368v0.374h0.111h0.145
		v0.127h-0.145h-0.111v0.716h0.111h0.145v0.128h-0.145h-0.111v0.221h0.697l0.377,0.517h-0.333v0.161h0.448l0.265,0.363
		c0.702,0,1.274,0.566,1.274,1.258v1.875h4.006v14.955h9.036v-22.73h0.743v-1.152h5.691v-0.716h0.186v0.716h0.848v-1.599h0.188
		v1.599h0.201v-11.444h1.4v-2.173h10.737v-1.351h0.353v1.351h1.6v-3.016h0.35v3.016h1.132v2.173h1.399v24.98h11.569v-22.443h1.372
		v-0.878h-0.443v-2.113h11.781v2.113h-0.445v0.878h1.372v23.377h1.042v-0.559h0.146v0.559h0.661v-1.249h0.145v1.249h0.47v0.9h0.58
		v20.649h1.646v-20.098c0-0.688,0.558-1.252,1.238-1.252h0.402v-1.414l2.363-2.203h8.229l2.363,2.203v1.414h1.211v-0.784h7.406
		h3.332v-1.351h0.352v1.351h1.6v-3.017h0.35v3.017h1.133h0.798v-16.378h10.632v17.266c0.438,0.194,0.746,0.637,0.746,1.148v10.219
		h3.428v-34.232h0.66v-0.674h0.334v-1.408h0.586v1.408h1.326v-1.408h0.584v1.408h1.33v-1.408h0.583v1.408h1.329v-1.408h0.584v1.408
		h1.328v-1.408h0.583v1.408h0.336v0.674h0.745v-1.949h1.46v-1.623c0-0.998,1.584-1.814,3.521-1.814c1.936,0,3.52,0.816,3.52,1.814
		v1.623h1.13v-1.211h0.316v1.211h1.434v-2.705h0.314v2.705h1.016v1.949h1.255v43.983h1.845v-58.002h1.396v-4.64h14.965v4.64h1.394
		v55.733h4.009v-17.196v-0.184V362.54h1.209v-0.686c0-1.113,1.766-2.021,3.926-2.021c2.158,0,3.924,0.909,3.924,2.021v0.686h1.211
		v26.498v0.184v23.834H297.685L297.685,413.056z M587.316,413.056L587.316,413.056v-22.371h1.348V383.7h0.633l0.541-1.121h0.715
		v-0.388h-0.527l0.6-1.242h2.746l0.6,1.242h-0.527v0.388h0.715l0.541,1.121h0.631v6.984h1.35v22.371H587.316L587.316,413.056z
		 M597.644,413.056L597.644,413.056v-49.082h0.699v-3.289h7.936v-1.005h0.26v1.005h1.182v-1.51h0.258v1.51h0.838v3.289h0.943v42.116
		h1.064v6.966H597.644L597.644,413.056z M616.957,387.508L616.957,387.508h3.008v-0.664h-3.008V387.508L616.957,387.508z
		 M621.288,387.508L621.288,387.508h0.87v-0.664h-0.87V387.508L621.288,387.508z M644.738,386.844L644.738,386.844v0.325
		l0.141,0.257v-0.582H644.738L644.738,386.844z M646.203,387.508L646.203,387.508h3.008v-0.664h-3.008V387.508L646.203,387.508z
		 M575.815,362.54L575.815,362.54h1.073v-0.607h-1.073V362.54L575.815,362.54z M577.661,362.54L577.661,362.54h1.073v-0.607h-1.073
		V362.54L577.661,362.54z M579.507,362.54L579.507,362.54h1.072v-0.607h-1.072V362.54L579.507,362.54z M581.351,362.54
		L581.351,362.54h1.073v-0.607h-1.073V362.54L581.351,362.54z M464.339,363.889L464.339,363.889h1.756v-0.878h-1.756V363.889
		L464.339,363.889z M466.868,363.889L466.868,363.889h1.759v-0.878h-1.759V363.889L466.868,363.889z M469.4,363.889L469.4,363.889
		h1.755v-0.878H469.4V363.889L469.4,363.889z M471.929,363.889L471.929,363.889h1.758v-0.878h-1.758V363.889L471.929,363.889z
		 M67.181,363.889L67.181,363.889h1.758v-0.878h-1.758V363.889L67.181,363.889z M69.711,363.889L69.711,363.889h1.758v-0.878h-1.758
		V363.889L69.711,363.889z M72.242,363.889L72.242,363.889h1.757v-0.878h-1.757V363.889L72.242,363.889z M74.772,363.889
		L74.772,363.889h1.758v-0.878h-1.758V363.889L74.772,363.889z M263.245,386.844L263.245,386.844h-0.031v0.664h0.031V386.844
		L263.245,386.844z M216.767,405.928L216.767,405.928h-0.806v4.042h0.806V405.928L216.767,405.928z M204.526,362.54L204.526,362.54
		h1.072v-0.607h-1.072V362.54L204.526,362.54z M206.372,362.54L206.372,362.54h1.072v-0.607h-1.072V362.54L206.372,362.54z
		 M208.217,362.54L208.217,362.54h1.072v-0.607h-1.072V362.54L208.217,362.54z M210.062,362.54L210.062,362.54h1.073v-0.607h-1.073
		V362.54L210.062,362.54z M261.891,387.508L261.891,387.508v-0.664h-3.009v0.664H261.891L261.891,387.508z M375.962,387.508
		L375.962,387.508v-0.664h-3.01v0.664H375.962L375.962,387.508z M371.63,387.508L371.63,387.508v-0.664h-3.008v0.664H371.63
		L371.63,387.508z M367.298,387.508L367.298,387.508v-0.664h-3.008v0.664H367.298L367.298,387.508z M362.968,387.508
		L362.968,387.508v-0.664h-3.008v0.664H362.968z"/>
</g>
</svg>
